<svg width="165" height="88" viewBox="0 0 165 88" fill="none" xmlns="http://www.w3.org/2000/svg">
    <path d="M0.703956 81.4815L11.874 81.5879" stroke="#999999" stroke-width="3" />
    <path d="M3.70394 60.2591L14.4658 63.253" stroke="#999999" stroke-width="3" />
    <path d="M12.0944 40.5365L21.7147 46.2137" stroke="#999999" stroke-width="3" />
    <path d="M25.3036 23.6573L33.1267 31.631" stroke="#999999" stroke-width="3" />
    <path d="M42.4312 10.7722L47.924 20.499" stroke="#999999" stroke-width="3" />
    <path d="M62.3103 2.75906L65.0985 13.576" stroke="#999999" stroke-width="3" />
    <path d="M83.5861 0.164169L83.4796 11.3342" stroke="#999999" stroke-width="3" />
    <path d="M104.808 3.16402L101.814 13.9259" stroke="#999999" stroke-width="3" />
    <path d="M124.531 11.5546L118.854 21.1749" stroke="#999999" stroke-width="3" />
    <path d="M141.41 24.7637L133.436 32.5869" stroke="#999999" stroke-width="3" />
    <path d="M154.295 41.8914L144.568 47.3843" stroke="#999999" stroke-width="3" />
    <path d="M162.308 61.7705L151.491 64.5588" stroke="#999999" stroke-width="3" />
    <path d="M164.903 83.0461L153.733 82.9397" stroke="#999999" stroke-width="3" />
    <path d="M0.857391 77.1858L6.43196 77.5312" stroke="#CCCCCC" />
    <path d="M1.23549 72.9041L6.78435 73.5408" stroke="#CCCCCC" />
    <path d="M1.83691 68.6478L7.34483 69.574" stroke="#CCCCCC" />
    <path d="M2.66047 64.429L8.11237 65.6423" stroke="#CCCCCC" />
    <path d="M4.96391 56.1496L10.2591 57.9261" stroke="#CCCCCC" />
    <path d="M6.43743 52.1117L11.6324 54.1628" stroke="#CCCCCC" />
    <path d="M8.12002 48.1563L13.2005 50.4765" stroke="#CCCCCC" />
    <path d="M10.0072 44.2942L14.9593 46.8772" stroke="#CCCCCC" />
    <path d="M14.3751 36.893L19.0301 39.9794" stroke="#CCCCCC" />
    <path d="M16.8434 33.374L21.3305 36.6998" stroke="#CCCCCC" />
    <path d="M19.4925 29.9888L23.7994 33.5449" stroke="#CCCCCC" />
    <path d="M22.3151 26.7471L26.43 30.5237" stroke="#CCCCCC" />
    <path d="M28.4495 20.7284L32.1471 24.9145" stroke="#CCCCCC" />
    <path d="M31.7445 17.9679L35.2179 22.3418" stroke="#CCCCCC" />
    <path d="M35.1795 15.3839L38.4192 19.9335" stroke="#CCCCCC" />
    <path d="M38.7451 12.9832L41.7423 17.6962" stroke="#CCCCCC" />
    <path d="M46.2283 8.75737L48.7164 13.7578" stroke="#CCCCCC" />
    <path d="M50.1252 6.94374L52.3483 12.0675" stroke="#CCCCCC" />
    <path d="M54.1119 5.33665L56.0637 10.5698" stroke="#CCCCCC" />
    <path d="M58.1774 3.94063L59.8526 9.26874" stroke="#CCCCCC" />
    <path d="M66.4994 1.79559L67.6085 7.26962" stroke="#CCCCCC" />
    <path d="M70.7332 1.05251L71.5543 6.57708" stroke="#CCCCCC" />
    <path d="M74.9998 0.53215L75.5306 6.09213" stroke="#CCCCCC" />
    <path d="M79.288 0.235641L79.5271 5.81579" stroke="#CCCCCC" />
    <path d="M87.8816 0.317505L87.5361 5.89208" stroke="#CCCCCC" />
    <path d="M92.1635 0.69574L91.5267 6.24459" stroke="#CCCCCC" />
    <path d="M96.4196 1.29736L95.4933 6.80529" stroke="#CCCCCC" />
    <path d="M100.638 2.12088L99.4249 7.57278" stroke="#CCCCCC" />
    <path d="M108.918 4.42403L107.141 9.71924" stroke="#CCCCCC" />
    <path d="M112.956 5.8974L110.905 11.0924" stroke="#CCCCCC" />
    <path d="M116.911 7.58026L114.591 12.6608" stroke="#CCCCCC" />
    <path d="M120.773 9.46754L118.19 14.4197" stroke="#CCCCCC" />
    <path d="M128.174 13.8352L125.088 18.4902" stroke="#CCCCCC" />
    <path d="M131.693 16.3034L128.368 20.7905" stroke="#CCCCCC" />
    <path d="M135.079 18.9526L131.522 23.2595" stroke="#CCCCCC" />
    <path d="M138.321 21.7754L134.544 25.8903" stroke="#CCCCCC" />
    <path d="M144.339 27.9098L140.153 31.6073" stroke="#CCCCCC" />
    <path d="M147.099 31.2046L142.726 34.678" stroke="#CCCCCC" />
    <path d="M149.684 34.6397L145.134 37.8794" stroke="#CCCCCC" />
    <path d="M152.084 38.2052L147.372 41.2024" stroke="#CCCCCC" />
    <path d="M156.31 45.6883L151.31 48.1764" stroke="#CCCCCC" />
    <path d="M158.124 49.5854L153 51.8085" stroke="#CCCCCC" />
    <path d="M159.731 53.5723L154.498 55.5241" stroke="#CCCCCC" />
    <path d="M161.127 57.6376L155.799 59.3129" stroke="#CCCCCC" />
    <path d="M163.272 65.9596L157.798 67.0687" stroke="#CCCCCC" />
    <path d="M164.015 70.1931L158.49 71.0143" stroke="#CCCCCC" />
    <path d="M164.535 74.4602L158.975 74.991" stroke="#CCCCCC" />
    <path d="M164.832 78.7483L159.252 78.9875" stroke="#CCCCCC" />
    <path
        d="M24.0811 81.5093C24.0799 81.9373 23.9623 82.3015 23.7284 82.602C23.4927 82.9024 23.152 83.1315 22.7065 83.2892C22.259 83.447 21.719 83.5249 21.0865 83.523C20.4577 83.5211 19.921 83.44 19.4764 83.2796C19.0299 83.1172 18.6897 82.8852 18.4557 82.5833C18.2199 82.2796 18.1026 81.9156 18.1039 81.4914C18.1052 81.0671 18.2246 80.7048 18.4623 80.4044C18.698 80.102 19.0396 79.872 19.4871 79.7142C19.9326 79.5546 20.4698 79.4757 21.0986 79.4776C21.7311 79.4795 22.2707 79.5607 22.7172 79.7211C23.1618 79.8815 23.501 80.1126 23.735 80.4145C23.967 80.7163 24.0824 81.0812 24.0811 81.5093ZM23.4561 81.5074C23.4574 81.0832 23.2539 80.753 22.8455 80.5169C22.4371 80.2809 21.8541 80.1617 21.0965 80.1594C20.5927 80.1579 20.1636 80.2106 19.8091 80.3175C19.4546 80.4225 19.1843 80.5751 18.9981 80.7753C18.8119 80.9736 18.7184 81.2129 18.7175 81.4932C18.7163 81.9137 18.9227 82.2429 19.3367 82.4809C19.7489 82.7188 20.3328 82.839 21.0885 82.8412C21.5923 82.8427 22.0205 82.791 22.3731 82.686C22.7256 82.581 22.9941 82.4293 23.1784 82.231C23.3627 82.0308 23.4553 81.7896 23.4561 81.5074Z"
        fill="#313131" />
    <path
        d="M27.1148 66.1361C27.0485 66.4628 26.9237 66.7437 26.7406 66.979C26.5575 67.2143 26.3367 67.3879 26.0783 67.4996C25.8198 67.6114 25.5442 67.6453 25.2517 67.6013L25.3875 66.9331C25.6507 66.9595 25.8879 66.886 26.0991 66.7124C26.3087 66.5366 26.4431 66.3031 26.5024 66.0117C26.5499 65.7778 26.5374 65.5588 26.4648 65.3547C26.3926 65.1487 26.2715 64.9743 26.1015 64.8315C25.93 64.6865 25.7226 64.5893 25.4795 64.5399C25.2308 64.4893 24.9979 64.499 24.7807 64.5689C24.5621 64.6366 24.377 64.7536 24.2253 64.9199C24.0736 65.0862 23.9721 65.2907 23.9209 65.5335C23.8836 65.7076 23.8741 65.8922 23.8924 66.0872C23.9089 66.2819 23.9478 66.4473 24.009 66.5834L23.7998 67.2135L21.0637 66.298L21.6656 63.3359L22.2781 63.4603L21.7938 65.8434L23.4347 66.3856L23.4414 66.3522C23.3724 66.2164 23.3252 66.0541 23.2997 65.8653C23.2743 65.6766 23.281 65.4866 23.3199 65.2954C23.3908 64.9465 23.5375 64.6526 23.76 64.4137C23.981 64.1726 24.2511 64.0033 24.5705 63.9058C24.8902 63.8065 25.2348 63.7944 25.6041 63.8694C25.9679 63.9434 26.2761 64.091 26.5287 64.3124C26.7799 64.5316 26.9592 64.8 27.0667 65.1175C27.1723 65.4346 27.1884 65.7742 27.1148 66.1361Z"
        fill="#313131" />
    <path
        d="M26.9209 50.6714L32.0137 53.4848L31.673 54.1015L27.2267 51.6453L27.2103 51.6751L27.349 53.3745L26.7223 53.0284L26.5802 51.2881L26.9209 50.6714ZM33.81 50.3974C33.603 50.7721 33.3248 51.0349 32.9753 51.1858C32.6241 51.3359 32.2153 51.3729 31.7487 51.297C31.2806 51.2201 30.7696 51.0287 30.2159 50.7228C29.6655 50.4188 29.234 50.0895 28.9214 49.7351C28.608 49.378 28.4213 49.0109 28.3613 48.6338C28.3006 48.254 28.3728 47.8785 28.578 47.5072C28.7831 47.1358 29.0621 46.8756 29.4149 46.7265C29.767 46.5748 30.1772 46.5374 30.6453 46.6142C31.1128 46.6885 31.6217 46.8777 32.1721 47.1818C32.7258 47.4876 33.1598 47.8183 33.4741 48.1736C33.7868 48.5281 33.9731 48.8939 34.033 49.2711C34.0913 49.6473 34.017 50.0228 33.81 50.3974ZM33.2629 50.0952C33.4681 49.7239 33.4484 49.3365 33.2039 48.9331C32.9593 48.5297 32.5055 48.1449 31.8424 47.7786C31.4014 47.535 30.9998 47.3748 30.6376 47.298C30.2763 47.2196 29.9659 47.2234 29.7064 47.3094C29.4477 47.3937 29.2507 47.5585 29.1151 47.8039C28.9118 48.1719 28.9344 48.5598 29.183 48.9676C29.43 49.3745 29.8842 49.7606 30.5456 50.126C30.9866 50.3696 31.3869 50.5302 31.7465 50.6077C32.1062 50.6852 32.4145 50.6813 32.6714 50.5961C32.9293 50.5092 33.1265 50.3422 33.2629 50.0952Z"
        fill="#313131" />
    <path
        d="M36.2866 37.1351L40.6328 41.0031L40.1644 41.5294L36.3699 38.1524L36.3473 38.1779L36.1075 39.866L35.5727 39.3901L35.8182 37.6614L36.2866 37.1351ZM43.0134 38.4479C42.7918 38.6969 42.5427 38.8771 42.2661 38.9884C41.9896 39.0997 41.7115 39.1387 41.4318 39.1054C41.1522 39.072 40.897 38.9628 40.6662 38.7777L41.1195 38.2684C41.3338 38.4236 41.5758 38.4792 41.8456 38.4354C42.1152 38.3888 42.3488 38.2545 42.5465 38.0324C42.7052 37.8541 42.8045 37.6585 42.8444 37.4456C42.8856 37.2312 42.8685 37.0196 42.7933 36.8107C42.718 36.5991 42.5876 36.4108 42.4023 36.2459C42.2127 36.0771 42.0065 35.9684 41.7837 35.9197C41.5607 35.8683 41.3418 35.8763 41.1271 35.9438C40.9123 36.0113 40.7218 36.1371 40.5554 36.3212C40.4356 36.4529 40.3347 36.6077 40.2524 36.7855C40.1688 36.9621 40.1193 37.1246 40.1037 37.2731L39.6061 37.7125L37.7012 35.5456L39.7108 33.2876L40.1777 33.7031L38.5609 35.5197L39.7067 36.8133L39.7294 36.7878C39.738 36.6357 39.7787 36.4717 39.8517 36.2957C39.9246 36.1198 40.0259 35.9589 40.1556 35.8132C40.3923 35.5472 40.6669 35.3669 40.9793 35.2723C41.2916 35.1749 41.6102 35.1644 41.9353 35.2408C42.2616 35.3157 42.5655 35.4784 42.8471 35.729C43.1244 35.9758 43.3166 36.2584 43.4236 36.5768C43.5306 36.8925 43.5506 37.2146 43.4839 37.5432C43.4158 37.8704 43.2589 38.172 43.0134 38.4479Z"
        fill="#313131" />
    <path
        d="M49.5878 31.8174L49.3492 31.3652L50.0664 28.6096C50.1508 28.2867 50.2151 28.0108 50.2592 27.7819C50.3024 27.5514 50.3175 27.3486 50.3043 27.1735C50.2919 26.9958 50.2442 26.8283 50.1611 26.6708C50.0657 26.4899 49.9395 26.3563 49.7825 26.27C49.6273 26.1827 49.4561 26.1424 49.269 26.1491C49.0819 26.1557 48.8954 26.2081 48.7095 26.3062C48.5118 26.4105 48.361 26.5426 48.2569 26.7025C48.1536 26.8598 48.1002 27.0325 48.0967 27.2207C48.0949 27.4079 48.1457 27.5995 48.2491 27.7955L47.6562 28.1084C47.497 27.8069 47.4269 27.5056 47.4457 27.2044C47.4645 26.9033 47.5601 26.6258 47.7324 26.3721C47.9064 26.1175 48.1434 25.9111 48.4432 25.7529C48.7447 25.5938 49.0454 25.5164 49.3454 25.5209C49.6455 25.5253 49.9186 25.6006 50.165 25.7469C50.4113 25.8931 50.6044 26.0986 50.744 26.3632C50.8439 26.5525 50.9073 26.7557 50.934 26.9728C50.9616 27.1874 50.95 27.4495 50.8992 27.759C50.8492 28.0659 50.7603 28.4554 50.6326 28.9276L50.1292 30.7737L50.1504 30.8139L52.5423 29.5516L52.834 30.1043L49.5878 31.8174ZM55.5871 28.7413C55.2086 28.9411 54.8318 29.0083 54.4567 28.9428C54.0808 28.8756 53.7186 28.6824 53.3702 28.363C53.0209 28.042 52.6986 27.6017 52.4033 27.0423C52.1099 26.4862 51.9296 25.9742 51.8626 25.5063C51.7963 25.0359 51.8416 24.6265 51.9983 24.2783C52.1558 23.9275 52.4222 23.6531 52.7974 23.455C53.1726 23.257 53.5486 23.1924 53.9254 23.2613C54.303 23.3275 54.6665 23.5212 55.0158 23.8422C55.3659 24.1607 55.6877 24.598 55.9811 25.1541C56.2764 25.7136 56.458 26.2281 56.5259 26.6976C56.5929 27.1655 56.5481 27.5736 56.3913 27.9218C56.2338 28.2684 55.9657 28.5416 55.5871 28.7413ZM55.2954 28.1886C55.6706 27.9906 55.8666 27.6559 55.8834 27.1845C55.9001 26.7131 55.7317 26.1424 55.3781 25.4724C55.143 25.0268 54.8951 24.6726 54.6343 24.4098C54.3752 24.146 54.1135 23.979 53.8494 23.9085C53.5869 23.8372 53.3317 23.8669 53.0838 23.9977C52.7119 24.194 52.5181 24.5308 52.5023 25.0081C52.4856 25.4837 52.6536 26.0557 53.0063 26.724C53.2415 27.1696 53.4881 27.5234 53.7464 27.7854C54.0046 28.0475 54.2645 28.2133 54.5261 28.283C54.7894 28.3518 55.0458 28.3203 55.2954 28.1886Z"
        fill="#313131" />
    <path
        d="M63.5142 24.9958L63.3881 24.5002L64.731 21.9893C64.8887 21.6951 65.0158 21.442 65.1123 21.2298C65.2083 21.0158 65.2704 20.8222 65.2987 20.6489C65.3283 20.4733 65.3211 20.2992 65.2772 20.1267C65.2268 19.9284 65.1354 19.769 65.0031 19.6482C64.8726 19.5271 64.7156 19.4478 64.5321 19.4104C64.3487 19.3731 64.1551 19.3803 63.9514 19.4321C63.7348 19.4872 63.5572 19.5803 63.4186 19.7113C63.2813 19.8401 63.1889 19.9955 63.1414 20.1776C63.0958 20.3592 63.1003 20.5574 63.1549 20.7721L62.5052 20.9375C62.4211 20.6071 62.4235 20.2977 62.5123 20.0093C62.6012 19.7209 62.7591 19.4736 62.9861 19.2673C63.2149 19.0606 63.4936 18.9154 63.8221 18.8318C64.1525 18.7478 64.463 18.743 64.7536 18.8176C65.0442 18.8922 65.2922 19.0294 65.4974 19.2293C65.7027 19.4292 65.8422 19.6742 65.9159 19.9642C65.9687 20.1716 65.9827 20.384 65.9579 20.6013C65.9344 20.8164 65.8617 21.0684 65.7398 21.3574C65.6193 21.6441 65.4416 22.002 65.2068 22.4311L64.285 24.1079L64.2962 24.1519L66.9173 23.4851L67.0714 24.0908L63.5142 24.9958ZM69.9901 23.4303C69.6671 23.5125 69.3598 23.5222 69.0683 23.4596C68.7768 23.397 68.5246 23.2735 68.3116 23.0893C68.0986 22.9051 67.9483 22.6716 67.8608 22.389L68.5216 22.2209C68.6122 22.4695 68.7815 22.6512 69.0296 22.7659C69.279 22.8783 69.5478 22.8979 69.836 22.8246C70.0673 22.7657 70.2591 22.6593 70.4114 22.5052C70.5655 22.3507 70.67 22.1658 70.7247 21.9506C70.7807 21.7331 70.7782 21.5042 70.717 21.2637C70.6544 21.0178 70.5445 20.8122 70.3871 20.647C70.2312 20.4795 70.0453 20.3636 69.8296 20.2993C69.6139 20.235 69.3856 20.2325 69.1447 20.2918C68.9717 20.3339 68.8014 20.4056 68.6337 20.5069C68.4655 20.6063 68.3334 20.7132 68.2374 20.8275L67.5791 20.9129L67.2144 18.0509L70.1438 17.3056L70.2979 17.9113L67.9412 18.5109L68.166 20.2242L68.1991 20.2158C68.2913 20.0946 68.417 19.9816 68.5759 19.8766C68.7349 19.7717 68.9089 19.6952 69.0979 19.6471C69.443 19.5593 69.7715 19.5637 70.0833 19.6602C70.3965 19.7545 70.6664 19.9242 70.893 20.1695C71.1214 20.4143 71.282 20.7193 71.3749 21.0846C71.4665 21.4443 71.4674 21.7861 71.3778 22.1098C71.2896 22.4313 71.1258 22.7094 70.8866 22.9442C70.6468 23.1772 70.348 23.3392 69.9901 23.4303Z"
        fill="#313131" />
    <path
        d="M80.6614 22.0853C80.2864 22.0818 79.9527 22.0143 79.6604 21.8828C79.3699 21.7513 79.1396 21.5702 78.9694 21.3394C78.8011 21.1068 78.7108 20.838 78.6984 20.5329L79.4143 20.5396C79.4277 20.7272 79.4906 20.8897 79.603 21.0271C79.7154 21.1627 79.8631 21.2682 80.0461 21.3438C80.2291 21.4193 80.4323 21.4582 80.6558 21.4602C80.9058 21.4626 81.1278 21.4211 81.3218 21.3357C81.5158 21.2504 81.6684 21.1306 81.7797 20.9764C81.891 20.8221 81.9476 20.6427 81.9495 20.4381C81.9514 20.2241 81.9002 20.0352 81.7956 19.8713C81.6911 19.7056 81.537 19.5754 81.3333 19.4807C81.1297 19.386 80.8801 19.3372 80.5847 19.3345L80.1188 19.3302L80.1246 18.7052L80.5905 18.7095C80.8215 18.7117 81.0246 18.6719 81.1996 18.5902C81.3765 18.5085 81.5149 18.3923 81.6148 18.2417C81.7165 18.0912 81.7684 17.9136 81.7703 17.7091C81.7721 17.5121 81.7301 17.3403 81.6444 17.1937C81.5586 17.047 81.4366 16.9323 81.2783 16.8494C81.1218 16.7665 80.9366 16.724 80.7226 16.722C80.5218 16.7202 80.3321 16.7553 80.1534 16.8275C79.9766 16.8979 79.8317 17.0016 79.7187 17.1388C79.6057 17.2742 79.5435 17.4384 79.5323 17.6314L78.8505 17.6251C78.8647 17.3203 78.959 17.0541 79.1335 16.8266C79.308 16.5971 79.535 16.4193 79.8146 16.2931C80.0961 16.1669 80.4045 16.1054 80.7397 16.1085C81.0995 16.1119 81.4075 16.1876 81.6637 16.3359C81.92 16.4822 82.1161 16.6744 82.2521 16.9124C82.3882 17.1504 82.4549 17.4067 82.4524 17.6813C82.4493 18.009 82.3606 18.2875 82.1861 18.517C82.0135 18.7464 81.78 18.9043 81.4856 18.9906L81.4852 19.036C81.852 19.1 82.1375 19.259 82.3416 19.5128C82.5457 19.7647 82.646 20.0753 82.6426 20.4446C82.6397 20.7609 82.5509 21.0441 82.3762 21.2944C82.2034 21.5428 81.9686 21.7376 81.6718 21.8788C81.3751 22.02 81.0382 22.0888 80.6614 22.0853ZM85.6867 22.132C85.2587 22.1281 84.8952 22.0082 84.5963 21.7725C84.2973 21.5348 84.0704 21.1927 83.9154 20.7462C83.7605 20.2978 83.686 19.7573 83.6919 19.1247C83.6977 18.496 83.7822 17.9598 83.9455 17.5162C84.1106 17.0708 84.3448 16.732 84.6481 16.5C84.9533 16.2661 85.3181 16.1511 85.7423 16.155C86.1665 16.159 86.5281 16.2807 86.827 16.5202C87.1278 16.7579 87.3557 17.1009 87.5107 17.5494C87.6675 17.9959 87.743 18.5336 87.7371 19.1623C87.7313 19.7949 87.6467 20.3339 87.4835 20.7794C87.3202 21.223 87.087 21.5608 86.7837 21.7928C86.4804 22.0229 86.1147 22.136 85.6867 22.132ZM85.6925 21.5071C86.1167 21.511 86.4482 21.3095 86.6868 20.9027C86.9255 20.4958 87.0483 19.9136 87.0554 19.156C87.06 18.6522 87.0101 18.2228 86.9054 17.8676C86.8026 17.5125 86.6517 17.2412 86.4527 17.0537C86.2556 16.8663 86.0169 16.7713 85.7366 16.7686C85.3161 16.7647 84.9856 16.9691 84.745 17.3816C84.5045 17.7923 84.3807 18.3754 84.3736 19.1311C84.369 19.6348 84.418 20.0633 84.5208 20.4166C84.6236 20.7698 84.7735 21.0392 84.9707 21.2248C85.1697 21.4104 85.4103 21.5045 85.6925 21.5071Z"
        fill="#313131" />
    <path
        d="M96.4332 24.0951C96.0714 23.9966 95.7657 23.8467 95.5163 23.6453C95.2687 23.4445 95.0918 23.2109 94.9857 22.9445C94.8819 22.6768 94.8627 22.3938 94.9281 22.0956L95.6189 22.2836C95.5843 22.4685 95.6039 22.6417 95.6778 22.8031C95.7521 22.9627 95.8682 23.1022 96.0261 23.2217C96.1839 23.3412 96.3707 23.4303 96.5863 23.489C96.8276 23.5546 97.0528 23.5708 97.2621 23.5375C97.4714 23.5041 97.6494 23.4269 97.7962 23.3059C97.943 23.1849 98.0432 23.0257 98.0969 22.8284C98.1531 22.6219 98.1514 22.4261 98.0918 22.2411C98.0328 22.0542 97.9167 21.8892 97.7437 21.7459C97.5707 21.6027 97.3417 21.4923 97.0566 21.4147L96.607 21.2924L96.7711 20.6893L97.2207 20.8116C97.4437 20.8723 97.6501 20.8853 97.8401 20.8506C98.032 20.8165 98.1953 20.7392 98.3301 20.6189C98.4668 20.499 98.5619 20.3404 98.6156 20.1431C98.6674 19.953 98.6703 19.7762 98.6246 19.6126C98.5788 19.449 98.4898 19.307 98.3577 19.1867C98.2274 19.0668 98.059 18.9788 97.8525 18.9226C97.6588 18.8699 97.4663 18.8558 97.2752 18.8803C97.0863 18.9035 96.9198 18.9671 96.7757 19.0712C96.6321 19.1735 96.5303 19.3165 96.4705 19.5004L95.8126 19.3214C95.9036 19.0302 96.0624 18.7966 96.2888 18.6208C96.5158 18.4431 96.7805 18.3286 97.083 18.2775C97.3873 18.2268 97.7011 18.2455 98.0246 18.3335C98.3718 18.428 98.6506 18.5794 98.8608 18.7877C99.0715 18.9943 99.2125 19.2299 99.2838 19.4946C99.355 19.7594 99.3546 20.0242 99.2825 20.2892C99.1965 20.6054 99.04 20.8523 98.813 21.03C98.5878 21.2082 98.3219 21.3017 98.0153 21.3105L98.0034 21.3544C98.342 21.5093 98.5778 21.7354 98.7109 22.0327C98.8444 22.3281 98.8627 22.654 98.7658 23.0104C98.6827 23.3156 98.525 23.5671 98.2925 23.7649C98.0624 23.9613 97.7859 24.0902 97.463 24.1515C97.1402 24.2128 96.7969 24.194 96.4332 24.0951ZM101.206 25.3937C100.884 25.3062 100.612 25.1634 100.389 24.9654C100.166 24.7673 100.007 24.5357 99.9126 24.2705C99.818 24.0053 99.8021 23.7281 99.8651 23.4391L100.523 23.6181C100.479 23.8791 100.537 24.1206 100.697 24.3426C100.859 24.5632 101.083 24.7126 101.37 24.7907C101.6 24.8533 101.819 24.8551 102.028 24.796C102.238 24.7374 102.42 24.628 102.574 24.4676C102.729 24.3059 102.84 24.1053 102.905 23.8659C102.972 23.621 102.977 23.388 102.922 23.1667C102.868 22.9442 102.764 22.7518 102.608 22.5896C102.452 22.4274 102.254 22.3128 102.015 22.2458C101.844 22.1973 101.66 22.1758 101.464 22.1814C101.269 22.1851 101.102 22.2131 100.962 22.2654L100.347 22.0156L101.438 19.3449L104.355 20.1386L104.191 20.7416L101.845 20.1031L101.197 21.7051L101.23 21.7141C101.37 21.654 101.535 21.6175 101.725 21.6044C101.915 21.5913 102.104 21.6104 102.292 21.6616C102.635 21.7551 102.919 21.9207 103.143 22.1582C103.369 22.3945 103.521 22.6751 103.597 23.0002C103.675 23.3257 103.665 23.6703 103.566 24.034C103.469 24.3921 103.301 24.6901 103.064 24.9277C102.829 25.1641 102.549 25.3255 102.225 25.4121C101.902 25.4968 101.562 25.4907 101.206 25.3937Z"
        fill="#313131" />
    <path
        d="M109.26 27.2093L109.563 26.7153L113.857 24.6038L114.216 24.8237L113.746 25.5889L113.504 25.4404L110.259 27.0359L110.235 27.0747L113.17 28.875L112.844 29.4078L109.26 27.2093ZM110.97 29.6584L111.686 28.4912L111.827 28.2611L114.012 24.6989L114.584 25.0495L111.542 30.0089L110.97 29.6584ZM114.703 32.0416C114.338 31.8178 114.089 31.5279 113.954 31.1719C113.82 30.8142 113.801 30.4041 113.898 29.9415C113.997 29.4773 114.211 28.9756 114.542 28.4364C114.871 27.9004 115.219 27.4844 115.587 27.1882C115.958 26.8913 116.334 26.7215 116.713 26.6788C117.095 26.6355 117.467 26.7247 117.829 26.9465C118.19 27.1684 118.438 27.4589 118.57 27.8181C118.706 28.1768 118.725 28.5882 118.627 29.0524C118.531 29.5159 118.319 30.0157 117.99 30.5517C117.659 31.0909 117.309 31.5094 116.94 31.8072C116.572 32.1034 116.198 32.2729 115.818 32.3156C115.44 32.3568 115.068 32.2654 114.703 32.0416ZM115.03 31.5089C115.392 31.7307 115.78 31.7286 116.194 31.5027C116.608 31.2768 117.013 30.841 117.409 30.1952C117.672 29.7658 117.851 29.3719 117.944 29.0135C118.039 28.6562 118.049 28.3459 117.975 28.0827C117.902 27.8205 117.747 27.6162 117.508 27.4696C117.149 27.2497 116.761 27.2547 116.342 27.4845C115.924 27.7126 115.518 28.1488 115.123 28.7929C114.86 29.2224 114.681 29.615 114.587 29.9707C114.493 30.3264 114.483 30.6346 114.557 30.8952C114.632 31.1567 114.789 31.3613 115.03 31.5089Z"
        fill="#313131" />
    <path
        d="M122.97 35.1364L123.391 34.7379L128.086 33.8131L128.375 34.1185L127.723 34.7357L127.528 34.5294L123.98 35.2283L123.947 35.2595L126.314 37.7598L125.861 38.1895L122.97 35.1364ZM123.986 37.9454L124.981 37.0039L125.177 36.8184L128.211 33.9452L128.672 34.432L124.447 38.4322L123.986 37.9454ZM126.918 41.1579C126.689 40.9158 126.531 40.6523 126.444 40.3672C126.356 40.0822 126.341 39.8017 126.398 39.526C126.455 39.2502 126.586 39.0053 126.79 38.7911L127.259 39.2862C127.086 39.4865 127.01 39.7229 127.031 39.9954C127.054 40.268 127.168 40.5123 127.372 40.7282C127.536 40.9015 127.723 41.0171 127.932 41.075C128.142 41.1344 128.354 41.1355 128.568 41.0784C128.786 41.0213 128.984 40.9075 129.165 40.7369C129.349 40.5625 129.475 40.3663 129.542 40.1484C129.613 39.9306 129.623 39.7119 129.574 39.4922C129.525 39.2724 129.416 39.0719 129.247 38.8904C129.126 38.7598 128.981 38.646 128.81 38.5489C128.642 38.4505 128.484 38.3872 128.337 38.3591L127.942 37.8258L130.263 36.1128L132.342 38.3077L131.888 38.7374L130.216 36.9716L128.829 38.0028L128.853 38.0276C129.004 38.0491 129.163 38.1037 129.333 38.1914C129.502 38.2791 129.653 38.3937 129.787 38.5354C130.032 38.7939 130.188 39.0829 130.256 39.4023C130.326 39.7217 130.31 40.0401 130.206 40.3574C130.103 40.6762 129.915 40.9651 129.642 41.2242C129.372 41.4795 129.074 41.6468 128.748 41.7263C128.424 41.8059 128.101 41.7984 127.78 41.7039C127.459 41.6081 127.172 41.4261 126.918 41.1579Z"
        fill="#313131" />
    <path
        d="M133.049 48.9723C132.893 48.6781 132.81 48.382 132.801 48.084C132.793 47.786 132.853 47.5116 132.981 47.2609C133.109 47.0101 133.3 46.8086 133.554 46.6563L133.874 47.258C133.654 47.4052 133.518 47.6129 133.466 47.8812C133.416 48.1502 133.461 48.4159 133.601 48.6784C133.713 48.889 133.862 49.0499 134.048 49.1611C134.235 49.2741 134.439 49.3315 134.661 49.3333C134.886 49.336 135.108 49.279 135.327 49.1623C135.551 49.0429 135.724 48.8872 135.847 48.6951C135.973 48.5037 136.041 48.2956 136.052 48.0708C136.063 47.846 136.011 47.6237 135.896 47.4038C135.814 47.2458 135.704 47.0974 135.566 46.9587C135.429 46.819 135.294 46.7162 135.16 46.6502L134.92 46.0311L137.613 44.9953L139.034 47.663L138.483 47.9569L137.339 45.8108L135.729 46.4372L135.745 46.4673C135.884 46.528 136.024 46.6231 136.164 46.7525C136.304 46.8819 136.42 47.0327 136.511 47.2048C136.679 47.5191 136.753 47.8391 136.733 48.165C136.716 48.4916 136.616 48.7942 136.431 49.0726C136.248 49.3527 135.99 49.5814 135.657 49.7587C135.33 49.9332 134.998 50.0156 134.662 50.0056C134.329 49.9965 134.02 49.9037 133.735 49.7272C133.452 49.5499 133.223 49.2982 133.049 48.9723ZM135.376 53.3379C135.174 52.9601 135.106 52.5836 135.17 52.2083C135.235 51.8321 135.427 51.4692 135.745 51.1195C136.065 50.7689 136.504 50.4448 137.062 50.1473C137.617 49.8516 138.128 49.6693 138.596 49.6004C139.066 49.5323 139.475 49.5759 139.824 49.7312C140.176 49.8873 140.451 50.1526 140.651 50.527C140.85 50.9014 140.916 51.2772 140.849 51.6543C140.784 52.0321 140.592 52.3964 140.272 52.747C139.955 53.0983 139.519 53.4219 138.964 53.7176C138.406 54.015 137.892 54.1987 137.423 54.2685C136.955 54.3374 136.547 54.2942 136.198 54.1388C135.851 53.9826 135.577 53.7156 135.376 53.3379ZM135.927 53.044C136.127 53.4184 136.462 53.613 136.934 53.6279C137.405 53.6428 137.975 53.4721 138.644 53.1158C139.088 52.8789 139.442 52.6296 139.703 52.3677C139.966 52.1076 140.132 51.8453 140.201 51.5808C140.272 51.318 140.241 51.063 140.109 50.8156C139.911 50.4445 139.574 50.252 139.097 50.2382C138.621 50.2234 138.05 50.3937 137.383 50.7491C136.938 50.986 136.585 51.2341 136.324 51.4933C136.063 51.7526 135.898 52.0132 135.83 52.2751C135.762 52.5386 135.794 52.7949 135.927 53.044Z"
        fill="#313131" />
    <path
        d="M140.238 64.0282C140.145 63.7082 140.125 63.4014 140.177 63.108C140.23 62.8145 140.345 62.5582 140.522 62.3391C140.699 62.12 140.927 61.9618 141.206 61.8647L141.397 62.5194C141.151 62.6184 140.976 62.7938 140.869 63.0457C140.766 63.2988 140.755 63.5681 140.838 63.8536C140.905 64.0827 141.018 64.2708 141.177 64.4178C141.337 64.5666 141.525 64.6647 141.742 64.712C141.961 64.7606 142.19 64.7503 142.428 64.681C142.672 64.6101 142.874 64.4932 143.033 64.3303C143.195 64.1688 143.305 63.9791 143.362 63.7613C143.419 63.5436 143.413 63.3153 143.346 63.0765C143.298 62.9051 143.221 62.7373 143.114 62.5731C143.009 62.4084 142.897 62.28 142.78 62.188L142.672 61.5329L145.52 61.0711L146.365 63.9734L145.764 64.148L145.085 61.8131L143.38 62.0961L143.39 62.1288C143.514 62.2169 143.631 62.3386 143.742 62.4939C143.852 62.6492 143.934 62.8205 143.989 63.0078C144.088 63.3497 144.095 63.6781 144.009 63.9931C143.926 64.3093 143.765 64.5848 143.528 64.8196C143.291 65.0562 142.991 65.2271 142.63 65.3325C142.273 65.4362 141.932 65.4488 141.605 65.3702C141.281 65.293 140.997 65.1388 140.754 64.9076C140.513 64.676 140.341 64.3828 140.238 64.0282ZM141.598 68.7016C141.505 68.3815 141.485 68.0748 141.537 67.7813C141.59 67.4879 141.705 67.2316 141.882 67.0124C142.059 66.7933 142.287 66.6352 142.566 66.5381L142.757 67.1928C142.511 67.2918 142.336 67.4672 142.229 67.719C142.125 67.9721 142.115 68.2415 142.198 68.527C142.265 68.7561 142.378 68.9442 142.537 69.0911C142.697 69.24 142.885 69.338 143.102 69.3854C143.321 69.434 143.55 69.4236 143.788 69.3543C144.032 69.2834 144.233 69.1665 144.393 69.0037C144.555 68.8421 144.665 68.6524 144.722 68.4347C144.779 68.2169 144.773 67.9886 144.706 67.7499C144.658 67.5784 144.581 67.4106 144.474 67.2464C144.368 67.0818 144.257 66.9534 144.14 66.8614L144.032 66.2063L146.88 65.7444L147.724 68.6468L147.124 68.8214L146.445 66.4864L144.74 66.7695L144.75 66.8022C144.874 66.8903 144.991 67.012 145.101 67.1673C145.212 67.3226 145.294 67.4939 145.349 67.6812C145.448 68.0231 145.455 68.3515 145.369 68.6664C145.286 68.9827 145.125 69.2582 144.888 69.493C144.651 69.7296 144.351 69.9005 143.989 70.0058C143.633 70.1095 143.292 70.1221 142.965 70.0436C142.641 69.9663 142.357 69.8121 142.114 69.581C141.873 69.3493 141.701 69.0562 141.598 68.7016Z"
        fill="#313131" />
    <path
        d="M142.951 79.7201C142.95 79.4814 142.99 79.2419 143.073 79.0016C143.155 78.7613 143.297 78.5406 143.5 78.3395C143.704 78.1384 143.982 77.9746 144.334 77.8482C144.688 77.7217 145.133 77.6531 145.671 77.6423C146.186 77.632 146.643 77.6711 147.043 77.7597C147.444 77.8482 147.783 77.9816 148.06 78.1598C148.338 78.3379 148.551 78.5553 148.698 78.8118C148.845 79.0703 148.922 79.3633 148.929 79.6909C148.935 80.0166 148.876 80.3076 148.75 80.564C148.627 80.8222 148.451 81.0341 148.223 81.1997C147.995 81.3653 147.731 81.4748 147.431 81.5282L147.417 80.8351C147.677 80.7655 147.892 80.6362 148.06 80.4471C148.229 80.2581 148.31 80.0102 148.304 79.7035C148.295 79.2528 148.092 78.9017 147.694 78.6502C147.297 78.4005 146.745 78.2819 146.036 78.2942L146.037 78.3396C146.2 78.4424 146.34 78.5656 146.457 78.7091C146.575 78.8545 146.668 79.0156 146.734 79.1923C146.8 79.369 146.835 79.5568 146.839 79.7556C146.845 80.0889 146.768 80.3954 146.607 80.6753C146.448 80.955 146.224 81.1812 145.936 81.3536C145.65 81.5261 145.319 81.6161 144.944 81.6236C144.584 81.6309 144.253 81.557 143.951 81.4021C143.65 81.2471 143.409 81.0256 143.227 80.7375C143.047 80.4513 142.955 80.1121 142.951 79.7201ZM143.576 79.7075C143.58 79.9461 143.644 80.1589 143.768 80.3459C143.891 80.5347 144.054 80.682 144.257 80.7878C144.46 80.8955 144.684 80.9469 144.93 80.9419C145.171 80.9371 145.388 80.8788 145.583 80.7669C145.78 80.6568 145.935 80.5069 146.049 80.3171C146.162 80.1292 146.217 79.9159 146.212 79.6773C146.208 79.4974 146.169 79.3306 146.094 79.1767C146.021 79.0229 145.921 78.8885 145.796 78.7735C145.671 78.6605 145.528 78.5725 145.367 78.5094C145.209 78.4463 145.042 78.4165 144.868 78.42C144.637 78.4246 144.422 78.4829 144.224 78.5949C144.025 78.7087 143.867 78.8616 143.747 79.0534C143.628 79.2471 143.571 79.4652 143.576 79.7075ZM143.05 84.6772C143.042 84.2493 143.151 83.8824 143.378 83.5766C143.607 83.2709 143.942 83.034 144.384 82.866C144.827 82.6979 145.365 82.6075 145.998 82.5948C146.626 82.5822 147.165 82.6509 147.613 82.8011C148.063 82.953 148.409 83.1772 148.65 83.4736C148.892 83.7718 149.018 84.133 149.026 84.5571C149.035 84.9813 148.924 85.3463 148.693 85.6521C148.465 85.9598 148.128 86.1977 147.685 86.3657C147.243 86.5356 146.708 86.6268 146.079 86.6395C145.447 86.6522 144.905 86.5835 144.455 86.4334C144.007 86.2833 143.663 86.0601 143.422 85.7637C143.183 85.4673 143.059 85.1051 143.05 84.6772ZM143.675 84.6646C143.684 85.0888 143.895 85.4142 144.309 85.6408C144.722 85.8673 145.308 85.973 146.065 85.9578C146.569 85.9477 146.997 85.8851 147.349 85.77C147.701 85.6569 147.968 85.4981 148.149 85.2936C148.331 85.0911 148.419 84.8497 148.413 84.5694C148.405 84.1491 148.191 83.8247 147.771 83.5963C147.354 83.3679 146.767 83.2613 146.012 83.2765C145.508 83.2866 145.081 83.3483 144.731 83.4614C144.381 83.5745 144.116 83.7323 143.936 83.9348C143.757 84.1392 143.67 84.3825 143.675 84.6646Z"
        fill="#313131" />
</svg>
