<svg width="221" height="221" viewBox="0 0 221 221" fill="none" xmlns="http://www.w3.org/2000/svg">
    <path
        d="M110.5 221C171.527 221 221 171.527 221 110.5C221 49.4725 171.527 0 110.5 0C49.4725 0 0 49.4725 0 110.5C0 171.527 49.4725 221 110.5 221Z"
        fill="#5AE4A7" />
    <path
        d="M153.03 44.6026C128.669 72.9062 104.631 106.005 106.779 143.241C107.948 158.439 111.357 180.471 103.378 194.983L128.01 219.614C180.06 211.327 219.99 166.696 220.974 112.547L153.03 44.6026Z"
        fill="#77CA9F" />
    <path
        d="M110.5 166.494C138.034 166.494 160.355 144.173 160.355 116.639V61.4239C160.355 48.6498 150 38.2948 137.226 38.2948H83.7739C70.9998 38.2948 60.6448 48.6498 60.6448 61.4239V116.639C60.6448 144.173 82.9658 166.494 110.5 166.494Z"
        fill="#4F4F4F" />
    <path d="M117.623 152.25H103.378V194.983H117.623V152.25Z" fill="#F2FAF6" />
    <path
        d="M87.1551 109.517H133.845C136.686 109.517 138.989 107.214 138.989 104.373V57.6832C138.989 54.8422 136.686 52.5392 133.845 52.5392H87.1551C84.3141 52.5392 82.0111 54.8422 82.0111 57.6832V104.373C82.0111 107.214 84.3141 109.517 87.1551 109.517Z"
        fill="#F2FAF6" />
    <path
        d="M109.205 117.286H88.5585C84.9429 117.286 82.0118 120.217 82.0118 123.833C82.0118 132.613 89.13 139.732 97.9104 139.732H109.205V117.286Z"
        fill="#AEC1CF" />
    <path
        d="M132.442 117.286H111.795V139.732H123.089C131.87 139.732 138.988 132.614 138.988 123.834C138.989 120.217 136.058 117.286 132.442 117.286Z"
        fill="#AEC1CF" />
    <path
        d="M98.2223 85.9444C98.2223 79.1634 110.5 61.3889 110.5 61.3889C110.5 61.3889 122.778 79.1634 122.778 85.9444C122.778 92.7255 117.281 98.2222 110.5 98.2222C103.719 98.2222 98.2223 92.7255 98.2223 85.9444Z"
        fill="#5AE4A7" />
</svg>
