<svg width="26" height="26" viewBox="0 0 26 26" fill="none" xmlns="http://www.w3.org/2000/svg">
    <circle cx="13" cy="13" r="13" fill="#D4F7E5" />
    <g clip-path="url(#clip0_86_2899)">
        <path
            d="M13 8.99255C10.7903 8.99255 8.99255 10.7906 8.99255 13.0003C8.99255 15.2101 10.7903 17.0081 13 17.0081C15.2094 17.0081 17.0074 15.2104 17.0074 13.0003C17.0074 10.7903 15.2094 8.99255 13 8.99255Z"
            fill="#313131" />
        <path
            d="M12.9999 7.81453C12.5681 7.81453 12.218 7.46448 12.218 7.03295V5.78193C12.218 5.35004 12.5681 5 12.9999 5C13.4318 5 13.7819 5.35004 13.7819 5.78193V7.03295C13.7819 7.46448 13.4315 7.81453 12.9999 7.81453Z"
            fill="#313131" />
        <path
            d="M12.9999 18.1851C12.5681 18.1851 12.218 18.5352 12.218 18.9671V20.2177C12.218 20.65 12.5681 21 12.9999 21C13.4318 21 13.7819 20.65 13.7819 20.2177V18.9671C13.7819 18.5352 13.4315 18.1851 12.9999 18.1851Z"
            fill="#313131" />
        <path
            d="M16.6663 9.33342C16.3612 9.02801 16.3612 8.53306 16.6663 8.22766L17.551 7.34298C17.856 7.03793 18.3513 7.03793 18.6567 7.34298C18.9621 7.64839 18.9621 8.14369 18.6567 8.44874L17.772 9.33342C17.467 9.63882 16.972 9.63882 16.6663 9.33342Z"
            fill="#313131" />
        <path
            d="M9.33337 16.6669C9.02796 16.3612 8.53301 16.3612 8.22761 16.6669L7.34293 17.5513C7.03788 17.8563 7.03753 18.352 7.34293 18.657C7.64834 18.9621 8.14364 18.9621 8.44869 18.657L9.33337 17.772C9.63877 17.4669 9.63877 16.9716 9.33337 16.6669Z"
            fill="#313131" />
        <path
            d="M18.1851 13C18.1851 12.5681 18.5351 12.2181 18.967 12.2181H20.218C20.6499 12.2181 20.9999 12.5681 20.9999 13C20.9999 13.4319 20.6499 13.7816 20.218 13.7816H18.967C18.5351 13.7816 18.1851 13.4319 18.1851 13Z"
            fill="#313131" />
        <path
            d="M7.81453 13C7.81453 12.5681 7.46448 12.2181 7.0326 12.2181H5.78193C5.35004 12.2181 5 12.5681 5 13C5 13.4319 5.35004 13.7816 5.78193 13.7816H7.03295C7.46448 13.7816 7.81453 13.4319 7.81453 13Z"
            fill="#313131" />
        <path
            d="M16.6663 16.667C16.9717 16.3619 17.467 16.3619 17.7721 16.667L18.6567 17.5516C18.9621 17.8563 18.9621 18.352 18.6567 18.657C18.3513 18.9621 17.8564 18.9621 17.551 18.657L16.6663 17.7724C16.3609 17.467 16.3609 16.972 16.6663 16.667Z"
            fill="#313131" />
        <path
            d="M9.33338 9.33339C9.63878 9.02799 9.63878 8.53304 9.33338 8.22763L8.4487 7.34331C8.1433 7.03791 7.64835 7.03791 7.34294 7.34331C7.03754 7.64836 7.03754 8.14366 7.34294 8.44871L8.22762 9.33339C8.53302 9.63915 9.02797 9.63915 9.33338 9.33339Z"
            fill="#313131" />
    </g>
    <defs>
        <clipPath id="clip0_86_2899">
            <rect width="16" height="16" fill="white" transform="translate(5 5)" />
        </clipPath>
    </defs>
</svg>
