<svg width="54" height="178" viewBox="0 0 54 178" fill="none" xmlns="http://www.w3.org/2000/svg">
    <path fill-rule="evenodd" clip-rule="evenodd"
        d="M18.6747 1.95286C21.4924 -0.429978 36.5887 -2.26325 42.6285 6.71854C48.6674 15.6995 45.4471 13.5004 48.8683 19.1823C52.2895 24.8642 52.2895 25.5984 49.0692 29.6299C45.8489 33.6631 42.4268 36.7792 45.2444 39.5279C48.063 42.2774 49.271 43.744 46.4524 47.5927C43.6338 51.4413 53.2957 55.8411 49.4709 60.6068C45.6471 65.3725 11.4278 66.8383 9.21368 61.3401C7.00045 55.842 10.6234 51.9925 8.40928 49.243C6.19423 46.4943 2.77303 43.7449 8.40928 39.8954C11.6769 37.664 6.95136 35.5551 4.67268 31.6916C2.08406 27.3058 3.71831 21.7936 4.98717 20.1002C8.00481 16.067 7.40219 0.853726 18.6747 1.95286Z"
        fill="#313131" />
    <path fill-rule="evenodd" clip-rule="evenodd"
        d="M15.4362 165.367C12.774 168.876 9.22826 170.895 8.34206 173.426C7.84124 174.857 8.21299 176.667 9.80997 176.848C16.6842 177.622 18.6811 174.547 21.1279 173.923C25.3581 172.842 25.4662 170.627 23.7556 165.367C22.045 160.106 17.5786 162.083 15.4362 165.367Z"
        fill="#FBD9BD" />
    <path fill-rule="evenodd" clip-rule="evenodd"
        d="M11.4233 98.6735H42.8713L38.8584 165.367H30.5381L28.8456 114.642C28.712 110.62 25.5844 110.596 25.4499 114.642L23.7575 165.367H15.4381L11.4233 98.6735Z"
        fill="#FBD9BD" />
    <path fill-rule="evenodd" clip-rule="evenodd"
        d="M45.8671 49.8423L42.8712 98.6735H26.8905H11.4233L8.42749 49.8423H45.8671Z"
        fill="#D4F7E5" />
    <path fill-rule="evenodd" clip-rule="evenodd"
        d="M41.2677 55.4563L45.8196 83.644C46.3741 87.0813 53.8963 85.1983 53.8236 82.0209L53.2301 56.303C53.0374 48.0272 40.0134 47.687 41.2677 55.4563Z"
        fill="#D4F7E5" />
    <path fill-rule="evenodd" clip-rule="evenodd"
        d="M44.5191 102.604C44.2155 102.418 43.8365 102.792 43.8092 103.119L43.4129 107.952C43.3866 108.279 43.731 108.442 44.0346 108.628C44.3382 108.814 44.7172 108.44 44.7436 108.113L45.1417 103.279C45.1681 102.953 44.8854 102.648 44.5191 102.604Z"
        fill="#FBD9BD" />
    <path fill-rule="evenodd" clip-rule="evenodd"
        d="M43.7955 104.671L43.9682 102.592L51.5096 103.58L51.3359 105.659C50.6061 111.918 42.9402 112.269 43.7955 104.671Z"
        fill="#FBD9BD" />
    <path fill-rule="evenodd" clip-rule="evenodd"
        d="M43.8865 103.204L45.5162 83.2393C46.9241 77.9489 54.9972 78.0672 53.8974 84.6256L51.3606 104.163L43.8865 103.204Z"
        fill="#FBD9BD" />
    <path fill-rule="evenodd" clip-rule="evenodd"
        d="M12.7322 55.4563L8.18032 83.644C7.62497 87.0813 0.102695 85.1983 0.176318 82.0209L0.770755 56.3022C0.96163 48.0272 13.9865 47.687 12.7322 55.4563Z"
        fill="#D4F7E5" />
    <path fill-rule="evenodd" clip-rule="evenodd"
        d="M9.48003 102.604C9.78361 102.418 10.1626 102.792 10.189 103.119L10.5871 107.952C10.6135 108.279 10.269 108.442 9.9654 108.628H9.96448C9.6609 108.814 9.28188 108.44 9.25461 108.113L8.85742 103.279C8.83106 102.953 9.11373 102.648 9.48003 102.604Z"
        fill="#FBD9BD" />
    <path fill-rule="evenodd" clip-rule="evenodd"
        d="M10.2045 104.671L10.0309 102.592L2.4895 103.58L2.6622 105.659C3.39298 111.918 11.0607 112.269 10.2045 104.671Z"
        fill="#FBD9BD" />
    <path fill-rule="evenodd" clip-rule="evenodd"
        d="M10.1144 103.204L8.48471 83.2393C7.07679 77.9489 -0.997206 78.0672 0.102595 84.6256L2.64032 104.163L10.1144 103.204Z"
        fill="#FBD9BD" />
    <path fill-rule="evenodd" clip-rule="evenodd"
        d="M11.4233 98.6735L12.5877 118.024H41.6251L42.8713 98.6735H11.4233Z" fill="#5AE4A7" />
    <path fill-rule="evenodd" clip-rule="evenodd"
        d="M38.8765 165.367C41.5387 168.876 45.0844 170.895 45.9697 173.426C46.4705 174.857 46.0997 176.667 44.5018 176.848C37.6285 177.622 35.6307 174.547 33.1848 173.923C28.9537 172.842 28.8456 170.627 30.5562 165.367C32.2686 160.106 36.7341 162.083 38.8765 165.367Z"
        fill="#FBD9BD" />
    <path fill-rule="evenodd" clip-rule="evenodd"
        d="M10.5734 170.388C9.53901 171.408 8.71007 172.373 8.34196 173.426C7.04765 177.126 10.6661 177.224 13.6228 176.876C17.5648 176.413 19.2082 174.412 21.1287 173.923C24.9299 172.952 25.4034 171.065 24.2182 166.878C24.0555 170.53 20.3034 171.524 16.1369 173.323C11.9722 175.122 8.61282 173.341 10.5734 170.388Z"
        fill="#313131" />
    <path fill-rule="evenodd" clip-rule="evenodd"
        d="M43.7401 170.388C44.7745 171.408 45.6043 172.373 45.9715 173.426C47.454 177.661 42.1731 177.341 39.1882 176.605C36.2924 175.891 34.8427 174.346 33.1857 173.923C29.3846 172.952 28.911 171.065 30.0953 166.878C30.258 170.53 34.0101 171.524 38.1766 173.323C42.3431 175.122 45.7007 173.341 43.7401 170.388Z"
        fill="#313131" />
    <path fill-rule="evenodd" clip-rule="evenodd"
        d="M35.0746 7.19691C38.773 10.208 40.7781 13.1718 39.9964 16.9054C39.2147 20.639 40.0909 23.3612 44.7574 25.1696C49.4247 26.9789 47.9086 27.5971 47.4432 31.8604C47.1551 34.5131 49.8446 36.6112 53.0313 36.2603C53.6339 36.1941 49.5674 35.3225 49.7346 32.6343C50.0028 28.3064 53.9348 25.4858 49.3429 21.9119C44.7501 18.3389 44.3211 17.1595 45.1846 14.5068C46.0471 11.8542 43.7585 7.97326 39.0984 4.38286C33.4576 0.0359771 31.3752 4.18588 35.0746 7.19691Z"
        fill="#313131" />
    <path fill-rule="evenodd" clip-rule="evenodd"
        d="M16.5206 23.2991C13.0885 26.5609 11.3197 29.4271 12.4159 33.0953C13.5111 36.7627 12.8694 39.537 8.36933 41.6691C3.86923 43.8011 5.4335 44.3101 6.25789 48.5279C6.77143 51.1532 4.26734 53.4335 1.05974 53.3076C0.452578 53.2836 4.43277 52.1291 4.03829 49.4607C3.40386 45.1651 -0.755384 42.6283 3.52111 38.7433C7.7967 34.8574 6.4015 34.2342 5.31624 31.651C4.23189 29.0662 7.8367 24.4015 12.2504 20.5455C39.2074 -3.009 19.9536 20.0373 16.5206 23.2991Z"
        fill="#313131" />
    <path fill-rule="evenodd" clip-rule="evenodd"
        d="M18.7384 7.19691C15.04 10.208 13.0349 13.1718 13.8166 16.9054C14.5982 20.639 13.722 23.3612 9.05559 25.1696C4.38825 26.9789 5.90526 27.5971 6.36972 31.8604C6.65876 34.5131 3.96833 36.6112 0.782547 36.2603C0.179929 36.1941 4.24556 35.3225 4.07922 32.6343C3.81018 28.3064 -0.121836 25.4858 4.47097 21.9119C9.06286 18.3389 9.49279 17.1595 8.62931 14.5068C7.76583 11.8542 10.0545 7.97326 14.7155 4.38286C20.3545 0.0359771 22.4368 4.18588 18.7384 7.19691Z"
        fill="#313131" />
    <path fill-rule="evenodd" clip-rule="evenodd"
        d="M38.402 22.5095C41.6814 25.8988 43.3165 28.8304 42.054 32.4531C40.7897 36.0758 41.3051 38.8733 45.7043 41.1742C50.1026 43.4751 48.5165 43.9245 47.4994 48.1067C46.8668 50.7105 49.2636 53.0842 52.4739 53.0809C53.0811 53.0793 49.1582 51.7757 49.6736 49.1247C50.5043 44.8564 54.7763 42.4819 50.6825 38.4363C46.5887 34.3906 48.0111 33.8212 49.2145 31.2803C50.417 28.7402 47.0277 23.943 42.7957 19.9223C16.9404 -4.6378 35.1216 19.1203 38.402 22.5095Z"
        fill="#313131" />
    <path fill-rule="evenodd" clip-rule="evenodd"
        d="M34.4073 32.919V49.9391C30.4135 54.7188 23.8792 54.5541 19.8854 49.9391V32.919C19.8863 24.1731 34.4073 24.1739 34.4073 32.919Z"
        fill="#FBD9BD" />
    <path fill-rule="evenodd" clip-rule="evenodd"
        d="M34.4072 32.919V43.7647C31.6605 45.7229 29.0109 46.8196 27.1467 46.8196C25.2816 46.8196 22.633 45.7238 19.8862 43.7655V32.919C19.8862 24.1731 34.4072 24.1731 34.4072 32.919Z"
        fill="#ECC2A0" />
    <path fill-rule="evenodd" clip-rule="evenodd"
        d="M27.1468 44.1256C22.4195 44.1256 12.4322 37.3562 9.34457 27.6634C6.22695 17.8746 12.0977 3.83583 27.1468 3.83583C42.1968 3.83583 48.0676 17.8746 44.949 27.6634C41.8614 37.3578 31.875 44.1256 27.1468 44.1256Z"
        fill="#FBD9BD" />
    <path fill-rule="evenodd" clip-rule="evenodd"
        d="M21.4514 34.3658C23.861 32.2428 25.7406 33.8352 27.1468 33.8352C28.5538 33.8352 30.4325 32.242 32.8421 34.3658C31.5478 39.9674 23.1693 40.1404 21.4514 34.3658Z"
        fill="#FF386A" />
    <path fill-rule="evenodd" clip-rule="evenodd"
        d="M21.4524 34.3658C23.861 32.2428 25.7398 33.8352 27.1468 33.8352C28.5538 33.8352 30.4326 32.242 32.8422 34.3658C29.1583 36.0194 23.9319 35.2472 21.4524 34.3658Z"
        fill="#C8204A" />
    <path
        d="M11.1743 26.5206C10.0451 24.1262 7.89687 22.6673 6.37621 23.262C4.85555 23.8567 4.53827 26.2798 5.66755 28.6742C6.79682 31.0685 8.94502 32.5274 10.4657 31.9327C11.9863 31.338 12.3036 28.9149 11.1743 26.5206Z"
        fill="#FBD9BD" />
    <path
        d="M49.0405 28.6733C50.1698 26.2789 49.8525 23.8558 48.3319 23.2612C46.8112 22.6665 44.663 24.1254 43.5337 26.5197C42.4045 28.9141 42.7218 31.3372 44.2424 31.9319C45.7631 32.5266 47.9113 31.0677 49.0405 28.6733Z"
        fill="#FBD9BD" />
    <path fill-rule="evenodd" clip-rule="evenodd"
        d="M19.3765 8.19428C20.5353 13.3233 26.4988 16.038 32.1314 16.7929C37.7631 17.5477 42.7331 17.5469 39.5855 21.0173C36.4379 24.486 38.2603 27.6551 41.2425 29.6158C44.2238 31.5766 43.2294 36.8562 40.579 40.1752C37.9286 43.4941 37.2669 46.3595 40.4126 49.5269C43.5612 52.6952 41.9042 52.8152 39.2538 56.7367C37.605 59.1775 38.8629 62.0089 41.8478 62.6595C42.4123 62.7819 39.2983 60.6962 40.8589 58.1834C43.3721 54.1403 46.8742 52.6952 44.721 47.8683C42.5677 43.0405 43.8929 42.8899 46.0462 40.6279C48.1994 38.3651 49.0274 32.6327 46.3779 27.9564C43.7266 23.2809 48.1994 24.7897 47.7022 19.0574C47.206 13.3241 31.8006 -7.79451 19.3765 8.19428Z"
        fill="#313131" />
    <path fill-rule="evenodd" clip-rule="evenodd"
        d="M29.3037 3.86393C25.4253 5.90826 12.0223 17.7736 10.5125 21.9177C9.0019 26.0627 10.5698 29.4561 11.4815 32.5019C8.21568 31.7578 0.108965 -1.52829 29.3037 3.86393Z"
        fill="#313131" />
    <path fill-rule="evenodd" clip-rule="evenodd"
        d="M18.8019 46.1848L14.868 49.1073L21.4587 58.421L27.1467 53.5063L18.8019 46.1848Z"
        fill="#5AE4A7" />
    <path fill-rule="evenodd" clip-rule="evenodd"
        d="M35.6561 46.1095L39.7553 49.2579L32.8348 58.421L27.1467 53.5063L35.6561 46.1095Z"
        fill="#5AE4A7" />
    <path fill-rule="evenodd" clip-rule="evenodd"
        d="M44.9663 89.9657L45.5153 83.2393C46.9232 77.9489 54.9963 78.0672 53.8965 84.6256L53.203 89.9657H44.9663Z"
        fill="#D4F7E5" />
    <path fill-rule="evenodd" clip-rule="evenodd"
        d="M9.0328 89.9657L8.48471 83.2393C7.07679 77.9489 -0.997206 78.0672 0.102595 84.6256L0.797014 89.9657H9.0328Z"
        fill="#D4F7E5" />
</svg>
