<svg width="72" height="176" viewBox="0 0 72 176" fill="none" xmlns="http://www.w3.org/2000/svg">
    <path fill-rule="evenodd" clip-rule="evenodd"
        d="M20.196 159.93C16.7049 164.637 12.0548 167.344 10.8932 170.741C9.00999 176.244 15.3776 175.975 19.3123 175.118C23.4315 174.221 25.4011 171.997 27.662 171.407C33.2109 169.957 33.3534 166.986 31.1085 159.93C28.8637 152.873 23.0065 155.525 20.196 159.93Z"
        fill="#313131" />
    <path fill-rule="evenodd" clip-rule="evenodd"
        d="M50.9372 159.93C54.4284 164.637 59.0793 167.344 60.2409 170.741C62.2604 176.643 54.6368 175.993 50.7635 174.846C47.3472 173.834 45.5309 171.944 43.4731 171.407C37.9241 169.957 37.7816 166.986 40.0256 159.93C42.2705 152.873 48.1285 155.525 50.9372 159.93Z"
        fill="#313131" />
    <path fill-rule="evenodd" clip-rule="evenodd"
        d="M16.5338 99.1308H55.7985V163.864H39.4893V116.856C39.4893 112.821 32.8429 112.798 32.8429 116.856V163.864H16.5338V99.1308Z"
        fill="#425156" />
    <path fill-rule="evenodd" clip-rule="evenodd"
        d="M59.0402 103.409C58.063 103.407 57.2621 104.129 57.2603 105.013L57.2523 108.916C57.2505 109.801 58.0478 110.525 59.0242 110.527H59.0251C60.0023 110.529 60.8022 109.806 60.8049 108.922L60.8129 105.02C60.8147 104.136 60.0165 103.411 59.0402 103.409Z"
        fill="#FBD9BD" />
    <path fill-rule="evenodd" clip-rule="evenodd"
        d="M57.2595 105.014L57.3004 102.854L71.6088 102.958L71.5678 105.119C71.4003 114.668 57.051 116.059 57.2595 105.014Z"
        fill="#FBD9BD" />
    <path fill-rule="evenodd" clip-rule="evenodd"
        d="M57.3013 102.854L57.3886 82.1822C57.4037 78.5457 60.8013 75.6205 64.8198 75.6818C68.8383 75.7447 72.0684 78.7723 71.9989 82.4096L71.6087 102.958L57.3013 102.854Z"
        fill="#D4F7E5" />
    <path fill-rule="evenodd" clip-rule="evenodd"
        d="M71.6087 102.958L71.6622 100.149L57.3129 100.036L57.3013 102.854L71.6087 102.958Z"
        fill="#5AE4A7" />
    <path fill-rule="evenodd" clip-rule="evenodd"
        d="M24.7312 56.3637L14.2035 83.2879C12.8628 86.7171 8.66613 88.5302 4.87747 87.3156C1.08882 86.101 -0.912848 82.3024 0.427835 78.8723L10.9555 51.9482C14.0137 44.1283 27.6317 48.9464 24.7312 56.3637Z"
        fill="#D4F7E5" />
    <path fill-rule="evenodd" clip-rule="evenodd"
        d="M12.9599 103.409C13.938 103.407 14.7379 104.129 14.7397 105.013L14.7477 108.916C14.7495 109.801 13.9522 110.525 12.975 110.527H12.9741C11.9969 110.529 11.1969 109.806 11.1952 108.922L11.1871 105.02C11.1854 104.136 11.9826 103.411 12.9599 103.409Z"
        fill="#FBD9BD" />
    <path fill-rule="evenodd" clip-rule="evenodd"
        d="M14.7397 105.014L14.6987 102.854L0.390381 102.958L0.431356 105.119C0.599721 114.668 14.9481 116.059 14.7397 105.014Z"
        fill="#FBD9BD" />
    <path fill-rule="evenodd" clip-rule="evenodd"
        d="M14.6987 102.854L14.6114 82.1822C14.5963 78.5457 11.1978 75.6205 7.18021 75.6818C3.16262 75.7447 -0.0683839 78.7723 0.00110006 82.4096L0.391282 102.958L14.6987 102.854Z"
        fill="#D4F7E5" />
    <path fill-rule="evenodd" clip-rule="evenodd"
        d="M0.391344 102.958L0.337891 100.149L14.6863 100.036L14.6988 102.854L0.391344 102.958Z"
        fill="#5AE4A7" />
    <path d="M55.7985 47.9463H16.5338V103.993H55.7985V47.9463Z" fill="#D4F7E5" />
    <path fill-rule="evenodd" clip-rule="evenodd"
        d="M25.254 47.9463H47.0782V49.1883C47.0782 54.6217 42.1671 59.0671 36.1657 59.0671C30.1642 59.0671 25.254 54.6217 25.254 49.1883V47.9463Z"
        fill="#5AE4A7" />
    <path fill-rule="evenodd" clip-rule="evenodd"
        d="M36.1665 21.5262C41.0438 21.5262 45.0338 25.1393 45.0338 29.5533V47.9471C45.0338 52.3627 41.0438 55.9742 36.1665 55.9742C31.2893 55.9742 27.2993 52.3619 27.2993 47.9471V29.5533C27.2993 25.1393 31.2893 21.5262 36.1665 21.5262Z"
        fill="#FBD9BD" />
    <path fill-rule="evenodd" clip-rule="evenodd"
        d="M11.3929 169.649C11.1889 170.007 11.0206 170.37 10.8932 170.741C9.00999 176.244 15.3776 175.975 19.3123 175.118C23.4315 174.221 25.4011 171.997 27.662 171.407C30.6382 170.629 32.0591 169.413 32.3895 167.365C29.2325 169.588 24.455 171.411 19.3907 172.919C17.2358 170.758 14.1224 169.683 11.3929 169.649Z"
        fill="#A0B1C8" />
    <path
        d="M18.1542 163.723C18.4268 163.799 18.6807 163.894 18.9185 164.006L18.988 164.002C20.5078 163.891 22.0774 164.023 23.2265 164.598C23.451 164.71 23.5321 164.964 23.4092 165.167C23.2862 165.37 23.0047 165.444 22.7811 165.332C22.0596 164.973 21.1126 164.82 20.1158 164.806C20.7465 165.367 21.1955 166.019 21.5491 166.568C21.7166 166.694 21.7674 166.914 21.6587 167.092C21.5358 167.295 21.2534 167.369 21.0289 167.258C20.3251 166.906 19.4628 166.704 18.5702 166.616C19.1662 167.189 19.5947 167.833 19.9305 168.357C20.0588 168.557 19.9831 168.813 19.7621 168.929C19.5412 169.045 19.2579 168.978 19.1297 168.777C18.8722 168.375 18.556 167.898 18.1533 167.456V165.744C18.7974 165.78 19.4423 165.866 20.049 166.015C19.8022 165.717 19.5189 165.427 19.1885 165.177C19.0406 165.065 18.8838 164.96 18.7145 164.867C18.5257 164.885 18.3377 164.907 18.1533 164.932V163.723H18.1542ZM13.5736 167.33C13.3669 167.466 13.0774 167.426 12.926 167.24C12.7746 167.053 12.82 166.79 13.0258 166.653C13.3874 166.413 13.9531 166.199 14.6364 166.037L14.6257 166.038C14.4912 166.049 14.3647 166.006 14.272 165.93C14.2239 165.902 14.1812 165.867 14.1455 165.823C13.995 165.636 14.0386 165.374 14.2453 165.236C14.696 164.938 15.5299 164.623 16.5365 164.381C16.4634 164.384 16.3895 164.389 16.3138 164.395C16.0599 164.415 15.8345 164.246 15.8122 164.016C15.79 163.785 15.977 163.582 16.2309 163.562C16.9578 163.502 17.5939 163.568 18.1533 163.722V164.931C17.4656 165.024 16.8144 165.161 16.2577 165.319C16.655 165.414 17.0166 165.553 17.3453 165.725C17.6135 165.723 17.8834 165.728 18.1542 165.743V167.454C17.9618 167.243 17.7489 167.04 17.5137 166.857C17.381 166.753 17.2393 166.656 17.0879 166.566C15.5628 166.612 14.182 166.926 13.5736 167.33Z"
        fill="#A0B1C8" />
    <path fill-rule="evenodd" clip-rule="evenodd"
        d="M59.734 169.649C59.9389 170.007 60.1064 170.37 60.2338 170.741C62.1161 176.244 55.7494 175.975 51.8147 175.118C47.6955 174.221 45.7259 171.997 43.465 171.407C40.4888 170.629 39.0688 169.413 38.7374 167.365C41.8954 169.588 46.672 171.411 51.7372 172.919C53.8912 170.758 57.0055 169.683 59.734 169.649Z"
        fill="#A0B1C8" />
    <path
        d="M57.5543 167.33C57.761 167.466 58.0505 167.426 58.202 167.24C58.3525 167.053 58.308 166.79 58.1022 166.653C57.7396 166.413 57.1739 166.199 56.4907 166.037L56.5014 166.038C56.6359 166.049 56.7633 166.006 56.8559 165.93C56.9031 165.902 56.9468 165.867 56.9824 165.823C57.133 165.636 57.0884 165.374 56.8826 165.236C56.4319 164.938 55.5972 164.623 54.5915 164.381C54.6645 164.384 54.7384 164.389 54.8142 164.395C55.068 164.415 55.2934 164.246 55.3166 164.016C55.3388 163.785 55.1518 163.582 54.897 163.562C54.1701 163.502 53.5341 163.568 52.9746 163.722V164.931C53.6623 165.024 54.3135 165.161 54.8703 165.319C54.473 165.414 54.1122 165.553 53.7835 165.725C53.5153 165.723 53.2445 165.728 52.9746 165.743V167.454C53.167 167.243 53.3799 167.04 53.6151 166.857C53.7487 166.753 53.8904 166.656 54.0409 166.566C55.5642 166.612 56.945 166.926 57.5543 167.33ZM52.9737 163.723C52.7011 163.799 52.4473 163.894 52.2094 164.006L52.1399 164.002C50.6202 163.891 49.0506 164.023 47.9014 164.598C47.6769 164.71 47.595 164.964 47.7179 165.167C47.8408 165.37 48.1232 165.444 48.3468 165.332C49.0675 164.973 50.0153 164.82 51.0121 164.806C50.3814 165.367 49.9325 166.019 49.5788 166.568C49.4113 166.694 49.3606 166.914 49.4684 167.092C49.5913 167.295 49.8737 167.369 50.0982 167.258C50.8019 166.906 51.6651 166.704 52.5577 166.616C51.9618 167.189 51.5333 167.833 51.1965 168.357C51.0674 168.557 51.144 168.813 51.3649 168.929C51.5867 169.045 51.8691 168.978 51.9974 168.777C52.2548 168.376 52.5711 167.899 52.9737 167.456V165.744C52.3288 165.78 51.6847 165.866 51.0781 166.015C51.3248 165.717 51.6081 165.427 51.9377 165.177C52.0856 165.065 52.2433 164.96 52.4125 164.867C52.6014 164.885 52.7893 164.907 52.9737 164.932V163.723Z"
        fill="#A0B1C8" />
    <path fill-rule="evenodd" clip-rule="evenodd"
        d="M47.2688 56.3637L57.7965 83.2879C59.1381 86.7171 63.3348 88.5302 67.1225 87.3156C70.9103 86.101 72.912 82.3024 71.5713 78.8723L61.0436 51.9482C57.9863 44.1283 44.3683 48.9464 47.2688 56.3637Z"
        fill="#D4F7E5" />
    <path d="M55.7976 68.8112H16.5338V79.8192H55.7976V68.8112Z" fill="#5AE4A7" />
    <path fill-rule="evenodd" clip-rule="evenodd"
        d="M45.0329 33.7987V45.9034C41.6772 48.0874 38.4435 49.3125 36.1666 49.3125C33.8888 49.3125 30.6542 48.0874 27.3003 45.9034V33.7987C27.3003 24.036 45.0329 24.036 45.0329 33.7987Z"
        fill="#F6C4A9" />
    <path
        d="M18.1284 22.3825C17.2511 19.9707 15.2905 18.388 13.7494 18.8475C12.2083 19.307 11.6702 21.6347 12.5475 24.0465C13.4249 26.4584 15.3854 28.0411 16.9265 27.5816C18.4677 27.1221 19.0058 24.7944 18.1284 22.3825Z"
        fill="#FFDDCB" />
    <path
        d="M59.9959 24.048C60.8732 21.6362 60.3355 19.3086 58.7949 18.8492C57.2542 18.3899 55.294 19.9727 54.4167 22.3845C53.5394 24.7964 54.0771 27.124 55.6177 27.5833C57.1584 28.0427 59.1185 26.4599 59.9959 24.048Z"
        fill="#FFDDCB" />
    <path fill-rule="evenodd" clip-rule="evenodd"
        d="M26.1431 33.2027C28.852 34.9528 44.1421 34.856 46.8511 33.2027C44.4975 42.4065 29.2654 42.6895 26.1431 33.2027Z"
        fill="#F6C4A9" />
    <path fill-rule="evenodd" clip-rule="evenodd"
        d="M36.1665 1.26048C6.80871 1.26048 17.3667 33.3761 19.2837 35.9327C21.3986 38.7514 31.4229 46.2252 36.1665 46.2252C40.9102 46.2252 50.9345 38.7522 53.0494 35.9327C54.9673 33.3769 65.5235 1.26048 36.1665 1.26048Z"
        fill="#FBD9BD" />
    <path fill-rule="evenodd" clip-rule="evenodd"
        d="M29.3607 34.8649C31.2279 35.7835 41.7672 35.7319 43.6334 34.8649C42.0112 39.6966 31.5129 39.845 29.3607 34.8649Z"
        fill="white" />
    <path fill-rule="evenodd" clip-rule="evenodd"
        d="M66.6968 25.6385C58.5699 25.2901 56.1477 21.9585 55.5188 13.2886C54.4115 -1.96713 23.8074 -3.59142 19.5199 5.8785C10.0042 13.4902 17.0051 33.6688 17.0051 28.5411C17.0051 23.415 18.7805 19.0067 21.2828 15.1758C24.3918 21.0278 31.3669 26.3216 38.7037 25.7442C33.6759 21.9246 30.8876 20.2769 29.7189 14.1258C33.3205 23.3997 49.9031 29.2379 66.6968 25.6385Z"
        fill="#313131" />
</svg>
