<svg width="26" height="26" viewBox="0 0 26 26" fill="none" xmlns="http://www.w3.org/2000/svg">
    <circle cx="13" cy="13" r="13" fill="#D4F7E5" />
    <path
        d="M20.7736 14.5415C20.5916 14.4292 20.3566 14.4498 20.199 14.5939C19.0513 15.6349 17.5667 16.2085 16.0194 16.2085C12.5852 16.2085 9.79115 13.4144 9.79115 9.98023C9.79115 8.43287 10.3648 6.94837 11.4058 5.80066C11.5493 5.64246 11.5709 5.40808 11.4581 5.22608C11.3453 5.04456 11.1245 4.96033 10.9205 5.01795C7.43433 6.00513 5 9.22779 5 12.8548C5 17.346 8.65369 20.9995 13.1448 20.9995C16.7717 20.9995 19.9945 18.5652 20.9817 15.0791C21.0402 14.8732 20.9551 14.6542 20.7736 14.5415Z"
        fill="#313131" />
    <path
        d="M12.9338 11.3225L14.0689 11.8896L14.6359 13.0247C14.7168 13.1871 14.8829 13.2895 15.0645 13.2895C15.2461 13.2895 15.4116 13.1871 15.493 13.0247L16.0607 11.8896L17.1952 11.3225C17.3576 11.2411 17.46 11.0755 17.46 10.894C17.46 10.7124 17.3576 10.5468 17.1952 10.4654L16.0607 9.89823L15.493 8.76321C15.3302 8.43851 14.7979 8.43851 14.6359 8.76321L14.0689 9.89823L12.9338 10.4654C12.7715 10.5463 12.6689 10.7124 12.6689 10.894C12.6689 11.0755 12.7715 11.2416 12.9338 11.3225Z"
        fill="#313131" />
    <path
        d="M17.9358 7.5846H18.4149V8.06372C18.4149 8.3285 18.6293 8.54285 18.894 8.54285C19.1588 8.54285 19.3732 8.3285 19.3732 8.06372V7.5846H19.8523C20.1171 7.5846 20.3314 7.37036 20.3314 7.10547C20.3314 6.8407 20.1171 6.62647 19.8523 6.62647H19.3732V6.14734C19.3732 5.88245 19.1588 5.66821 18.894 5.66821C18.6293 5.66821 18.4149 5.88245 18.4149 6.14734V6.62647H17.9358C17.671 6.62647 17.4568 6.8407 17.4568 7.10547C17.4568 7.37036 17.671 7.5846 17.9358 7.5846Z"
        fill="#313131" />
</svg>
